<?xml version="1.0" encoding="utf-8"?>
<svg xmlns="http://www.w3.org/2000/svg" version="1.1" x="0px" y="0px" viewBox="0 0 100 100" enable-background="new 0 0 100 100" xmlns:bx="https://boxy-svg.com" width="100px" height="125px"><defs><bx:export><bx:file format="svg"/></bx:export></defs><path fill="#000000" d="M76.158,25.981c-1.625,1.617-4.044,3.698-7.171,5.33c1.08,1.875,1.917,4.003,2.499,6.366l1.187,4.867  l-5.115,0.919c-0.181,0.038-1.86,0.325-4.208,0.325c-5.386,0-9.969-1.439-13.393-4.104c-3.395,4.021-8.173,6.217-13.853,6.217  c-1.197,0-2.454-0.095-3.72-0.293c-2.111-0.321-3.785-1.92-4.162-3.976c-0.279-1.55,0.094-4.655,1.603-7.915  c-2.955-0.865-6.108-2.535-9.028-5.568c-7.724,7.229-12.525,17.32-12.525,28.495c0,21.979,18.561,39.803,41.452,39.803  c22.893,0,41.45-17.823,41.45-39.803C91.174,44.307,85.332,33.287,76.158,25.981z M14.637,59.948H25.34  c-0.113,2.331-0.036,4.706,0.305,7.105c1.1,7.874,4.542,14.892,9.54,20.51C24.716,81.941,16.92,72.026,14.637,59.948z" style=""/><path fill="#000000" d="M74.39,20.68c0,0-0.81,1.08-2.279,2.47c-0.7,0.67-1.561,1.41-2.561,2.14c-0.149,0.11-0.31,0.22-0.47,0.34  c-0.72,0.5-1.5,0.99-2.34,1.43c-0.21,0.11-0.41,0.22-0.63,0.32c-0.19,0.1-0.391,0.19-0.591,0.28c-0.68,0.3-1.39,0.57-2.13,0.79  c-0.22,0.07-0.449,0.13-0.67,0.19H62.69c-0.24,0.07-0.48,0.12-0.73,0.17c-0.49,0.11-1,0.19-1.52,0.24c2.64,1.8,5,4.8,6.199,9.72  c0,0-4.069,0.73-8.39-0.36c-0.3-0.07-0.59-0.16-0.89-0.25c-3.24-1.01-6.46-3.14-8.09-7.45c-0.08,0.26-0.17,0.52-0.27,0.79  s-0.21,0.55-0.32,0.83c-0.47,1.13-1.09,2.33-1.92,3.47c-0.21,0.28-0.43,0.56-0.65,0.83c-0.22,0.28-0.47,0.55-0.74,0.81  c-0.13,0.13-0.26,0.25-0.39,0.39h-0.01c-0.27,0.25-0.56,0.5-0.86,0.73c-0.15,0.12-0.31,0.24-0.47,0.34  c-0.31,0.22-0.65,0.43-0.99,0.63c-2.36,1.31-5.44,1.98-9.49,1.36c-0.27-0.04,0.25-8.03,7.25-11.73c-0.37,0.09-0.74,0.17-1.13,0.25  c-0.35,0.06-0.72,0.12-1.08,0.18c-0.25,0.03-0.5,0.06-0.74,0.08c-0.61,0.06-1.23,0.09-1.86,0.09c-0.11,0-0.23,0-0.34-0.01  c-0.01,0.01-0.03,0-0.04,0c-0.17,0-0.33-0.01-0.5-0.02c-0.11,0-0.23-0.01-0.34-0.02c-0.12-0.01-0.24-0.02-0.37-0.03  c-0.3-0.03-0.61-0.07-0.92-0.12c-0.13-0.03-0.27-0.05-0.4-0.07c-0.45-0.09-0.9-0.19-1.35-0.33c-0.31-0.09-0.61-0.19-0.92-0.31  c-2.91-1.04-5.78-3.13-8.3-6.83c-0.19-0.29,8.76-7.12,18.67-2.59c0.02,0.01,0.05,0.02,0.08,0.04c0.33,0.15,0.65,0.31,0.97,0.48  c-0.56-4.27,0.59-9.48,5.9-14.96c0,0,5.33,5.26,6.149,12.04c0.03,0.3,0.07,0.6,0.091,0.91c0.02,0.27,0.029,0.54,0.029,0.81  c0,0.2,0,0.41-0.01,0.62c0.24-0.14,0.49-0.28,0.74-0.41c0.1-0.05,0.2-0.11,0.3-0.15c0.26-0.14,0.53-0.27,0.81-0.39  c0.011-0.01,0.021-0.01,0.03-0.01c0.67-0.3,1.37-0.56,2.11-0.78C62.29,16.36,67.84,16.56,74.39,20.68z" style=""/></svg>